<svg width="558" height="180" viewBox="0 0 558 180" fill="none" xmlns="http://www.w3.org/2000/svg">
<path d="M547.758 70.6291C548.656 79.5469 542.579 88.8517 529.803 98.0404C517.105 107.173 498.178 115.898 474.358 123.717C426.74 139.348 359.899 151.255 285.133 155.698C210.367 160.141 141.937 156.273 91.7561 146.455C66.6542 141.543 46.2056 135.159 31.8301 127.635C17.3666 120.065 9.49928 111.589 8.60121 102.671C7.70313 93.7533 13.7798 84.4486 26.5556 75.2599C39.2537 66.127 58.1807 57.4026 82.0006 49.5836C129.619 33.9527 196.46 22.0455 271.226 17.6022C345.992 13.1589 414.422 17.0269 464.603 26.8456C489.705 31.7572 510.153 38.1415 524.529 45.6654C538.992 53.2353 546.86 61.7113 547.758 70.6291Z" stroke="#9EFF9C" stroke-width="3"/>
<path d="M548.214 76.6252C548.714 80.0938 547.579 83.7626 544.661 87.625C541.738 91.4943 537.1 95.4538 530.834 99.429C518.306 107.377 499.55 115.213 475.9 122.482C428.625 137.013 362.104 149.185 287.553 155.526C213.003 161.868 144.627 161.172 94.3585 154.939C69.2115 151.821 48.6784 147.327 34.1901 141.677C26.9434 138.852 21.2899 135.768 17.336 132.483C13.3891 129.205 11.236 125.816 10.7361 122.347C10.2361 118.879 11.3717 115.21 14.2892 111.347C17.2119 107.478 21.8501 103.518 28.1165 99.5433C40.6448 91.5956 59.4004 83.7591 83.05 76.4899C130.326 61.9588 196.847 49.7876 271.397 43.4458C345.947 37.104 414.323 37.7998 464.592 44.0331C489.739 47.1513 510.272 51.6456 524.76 57.2951C532.007 60.1207 537.661 63.2047 541.614 66.489C545.561 69.7675 547.714 73.1566 548.214 76.6252Z" stroke="#9EFF9C" stroke-width="3"/>
</svg>
