<svg width="1600" height="870" viewBox="0 0 1600 870" fill="none" xmlns="http://www.w3.org/2000/svg">
<rect x="3672.5" y="1.5" width="867" height="4401" rx="408.5" transform="rotate(90 3672.5 1.5)" stroke="#F7F7F7" stroke-width="3"/>
<rect x="1015.5" y="1.5" width="867" height="1965" rx="408.5" transform="rotate(90 1015.5 1.5)" stroke="#F7F7F7" stroke-width="3"/>
<rect x="694.5" y="96.5002" width="772" height="773" rx="386" transform="rotate(90 694.5 96.5002)" stroke="#F7F7F7" stroke-width="3"/>
<rect x="1634.5" y="136.5" width="458" height="458" rx="229" transform="rotate(90 1634.5 136.5)" stroke="#F7F7F7" stroke-width="3"/>
<rect x="1790.5" y="1.50024" width="772" height="772" rx="386" transform="rotate(90 1790.5 1.50024)" stroke="#F7F7F7" stroke-width="3"/>
<rect x="147.5" y="121.5" width="26" height="26" rx="13" transform="rotate(90 147.5 121.5)" fill="white" stroke="#9CCFFF" stroke-width="3"/>
<rect x="601.5" y="735.5" width="12" height="12" rx="6" transform="rotate(90 601.5 735.5)" fill="white" stroke="#9CCFFF" stroke-width="3"/>
<rect x="1273" y="177" width="15" height="15" rx="7.5" transform="rotate(90 1273 177)" fill="#FFE39C"/>
<rect x="316" y="462" width="15" height="15" rx="7.5" transform="rotate(90 316 462)" fill="#FFE39C"/>
<rect x="1281" y="546" width="15" height="15" rx="7.5" transform="rotate(90 1281 546)" fill="#7781EE"/>
</svg>
