<svg width="144" height="19" viewBox="0 0 144 19" fill="none" xmlns="http://www.w3.org/2000/svg">
<path d="M6.936 18.192C5.768 18.192 4.728 17.992 3.816 17.592C2.904 17.192 2.184 16.648 1.656 15.96C1.128 15.256 0.832 14.472 0.768 13.608H4.824C4.872 14.072 5.088 14.448 5.472 14.736C5.856 15.024 6.328 15.168 6.888 15.168C7.4 15.168 7.792 15.072 8.064 14.88C8.352 14.672 8.496 14.408 8.496 14.088C8.496 13.704 8.296 13.424 7.896 13.248C7.496 13.056 6.848 12.848 5.952 12.624C4.992 12.4 4.192 12.168 3.552 11.928C2.912 11.672 2.36 11.28 1.896 10.752C1.432 10.208 1.2 9.48 1.2 8.568C1.2 7.8 1.408 7.104 1.824 6.48C2.256 5.84 2.88 5.336 3.696 4.968C4.528 4.6 5.512 4.416 6.648 4.416C8.328 4.416 9.648 4.832 10.608 5.664C11.584 6.496 12.144 7.6 12.288 8.976H8.496C8.432 8.512 8.224 8.144 7.872 7.872C7.536 7.6 7.088 7.464 6.528 7.464C6.048 7.464 5.68 7.56 5.424 7.752C5.168 7.928 5.04 8.176 5.04 8.496C5.04 8.88 5.24 9.168 5.64 9.36C6.056 9.552 6.696 9.744 7.56 9.936C8.552 10.192 9.36 10.448 9.984 10.704C10.608 10.944 11.152 11.344 11.616 11.904C12.096 12.448 12.344 13.184 12.36 14.112C12.36 14.896 12.136 15.6 11.688 16.224C11.256 16.832 10.624 17.312 9.792 17.664C8.976 18.016 8.024 18.192 6.936 18.192ZM27.8548 4.608V18H23.7508V16.176C23.3348 16.768 22.7668 17.248 22.0468 17.616C21.3428 17.968 20.5588 18.144 19.6948 18.144C18.6708 18.144 17.7668 17.92 16.9828 17.472C16.1988 17.008 15.5908 16.344 15.1588 15.48C14.7268 14.616 14.5108 13.6 14.5108 12.432V4.608H18.5908V11.88C18.5908 12.776 18.8228 13.472 19.2868 13.968C19.7508 14.464 20.3748 14.712 21.1588 14.712C21.9588 14.712 22.5908 14.464 23.0548 13.968C23.5188 13.472 23.7508 12.776 23.7508 11.88V4.608H27.8548ZM38.7227 4.464C40.2907 4.464 41.5387 4.976 42.4667 6C43.4107 7.008 43.8827 8.4 43.8827 10.176V18H39.8027V10.728C39.8027 9.832 39.5707 9.136 39.1067 8.64C38.6427 8.144 38.0187 7.896 37.2347 7.896C36.4507 7.896 35.8267 8.144 35.3627 8.64C34.8987 9.136 34.6667 9.832 34.6667 10.728V18H30.5627V4.608H34.6667V6.384C35.0827 5.792 35.6427 5.328 36.3467 4.992C37.0507 4.64 37.8427 4.464 38.7227 4.464ZM45.6786 11.304C45.6786 9.912 45.9586 8.696 46.5186 7.656C47.0946 6.616 47.8866 5.816 48.8946 5.256C49.9186 4.696 51.0866 4.416 52.3986 4.416C54.0786 4.416 55.4786 4.856 56.5986 5.736C57.7346 6.616 58.4786 7.856 58.8306 9.456H54.4626C54.0946 8.432 53.3826 7.92 52.3266 7.92C51.5746 7.92 50.9746 8.216 50.5266 8.808C50.0786 9.384 49.8546 10.216 49.8546 11.304C49.8546 12.392 50.0786 13.232 50.5266 13.824C50.9746 14.4 51.5746 14.688 52.3266 14.688C53.3826 14.688 54.0946 14.176 54.4626 13.152H58.8306C58.4786 14.72 57.7346 15.952 56.5986 16.848C55.4626 17.744 54.0626 18.192 52.3986 18.192C51.0866 18.192 49.9186 17.912 48.8946 17.352C47.8866 16.792 47.0946 15.992 46.5186 14.952C45.9586 13.912 45.6786 12.696 45.6786 11.304ZM73.4098 11.088C73.4098 11.472 73.3858 11.872 73.3378 12.288H64.0498C64.1138 13.12 64.3778 13.76 64.8418 14.208C65.3218 14.64 65.9058 14.856 66.5938 14.856C67.6178 14.856 68.3298 14.424 68.7298 13.56H73.0978C72.8738 14.44 72.4658 15.232 71.8738 15.936C71.2978 16.64 70.5698 17.192 69.6898 17.592C68.8098 17.992 67.8258 18.192 66.7378 18.192C65.4258 18.192 64.2578 17.912 63.2338 17.352C62.2098 16.792 61.4098 15.992 60.8338 14.952C60.2578 13.912 59.9698 12.696 59.9698 11.304C59.9698 9.912 60.2498 8.696 60.8098 7.656C61.3858 6.616 62.1858 5.816 63.2098 5.256C64.2338 4.696 65.4098 4.416 66.7378 4.416C68.0338 4.416 69.1858 4.688 70.1938 5.232C71.2018 5.776 71.9858 6.552 72.5458 7.56C73.1218 8.568 73.4098 9.744 73.4098 11.088ZM69.2098 10.008C69.2098 9.304 68.9698 8.744 68.4898 8.328C68.0098 7.912 67.4098 7.704 66.6898 7.704C66.0018 7.704 65.4178 7.904 64.9378 8.304C64.4738 8.704 64.1858 9.272 64.0738 10.008H69.2098ZM74.5189 11.28C74.5189 9.904 74.7749 8.696 75.2869 7.656C75.8149 6.616 76.5269 5.816 77.4229 5.256C78.3189 4.696 79.3189 4.416 80.4229 4.416C81.3669 4.416 82.1909 4.608 82.8949 4.992C83.6149 5.376 84.1669 5.88 84.5509 6.504V4.608H88.6549V18H84.5509V16.104C84.1509 16.728 83.5909 17.232 82.8709 17.616C82.1669 18 81.3429 18.192 80.3989 18.192C79.3109 18.192 78.3189 17.912 77.4229 17.352C76.5269 16.776 75.8149 15.968 75.2869 14.928C74.7749 13.872 74.5189 12.656 74.5189 11.28ZM84.5509 11.304C84.5509 10.28 84.2629 9.472 83.6869 8.88C83.1269 8.288 82.4389 7.992 81.6229 7.992C80.8069 7.992 80.1109 8.288 79.5349 8.88C78.9749 9.456 78.6949 10.256 78.6949 11.28C78.6949 12.304 78.9749 13.12 79.5349 13.728C80.1109 14.32 80.8069 14.616 81.6229 14.616C82.4389 14.616 83.1269 14.32 83.6869 13.728C84.2629 13.136 84.5509 12.328 84.5509 11.304ZM95.4879 0.24V18H91.3839V0.24H95.4879ZM97.4061 11.28C97.4061 9.904 97.6621 8.696 98.1741 7.656C98.7021 6.616 99.4141 5.816 100.31 5.256C101.206 4.696 102.206 4.416 103.31 4.416C104.254 4.416 105.078 4.608 105.782 4.992C106.502 5.376 107.054 5.88 107.438 6.504V4.608H111.542V18H107.438V16.104C107.038 16.728 106.478 17.232 105.758 17.616C105.054 18 104.23 18.192 103.286 18.192C102.198 18.192 101.206 17.912 100.31 17.352C99.4141 16.776 98.7021 15.968 98.1741 14.928C97.6621 13.872 97.4061 12.656 97.4061 11.28ZM107.438 11.304C107.438 10.28 107.15 9.472 106.574 8.88C106.014 8.288 105.326 7.992 104.51 7.992C103.694 7.992 102.998 8.288 102.422 8.88C101.862 9.456 101.582 10.256 101.582 11.28C101.582 12.304 101.862 13.12 102.422 13.728C102.998 14.32 103.694 14.616 104.51 14.616C105.326 14.616 106.014 14.32 106.574 13.728C107.15 13.136 107.438 12.328 107.438 11.304ZM122.431 4.464C123.999 4.464 125.247 4.976 126.175 6C127.119 7.008 127.591 8.4 127.591 10.176V18H123.511V10.728C123.511 9.832 123.279 9.136 122.815 8.64C122.351 8.144 121.727 7.896 120.943 7.896C120.159 7.896 119.535 8.144 119.071 8.64C118.607 9.136 118.375 9.832 118.375 10.728V18H114.271V4.608H118.375V6.384C118.791 5.792 119.351 5.328 120.055 4.992C120.759 4.64 121.551 4.464 122.431 4.464ZM129.387 11.28C129.387 9.904 129.643 8.696 130.155 7.656C130.683 6.616 131.395 5.816 132.291 5.256C133.187 4.696 134.187 4.416 135.291 4.416C136.171 4.416 136.971 4.6 137.691 4.968C138.427 5.336 139.003 5.832 139.419 6.456V0.24H143.523V18H139.419V16.08C139.035 16.72 138.483 17.232 137.763 17.616C137.059 18 136.235 18.192 135.291 18.192C134.187 18.192 133.187 17.912 132.291 17.352C131.395 16.776 130.683 15.968 130.155 14.928C129.643 13.872 129.387 12.656 129.387 11.28ZM139.419 11.304C139.419 10.28 139.131 9.472 138.555 8.88C137.995 8.288 137.307 7.992 136.491 7.992C135.675 7.992 134.979 8.288 134.403 8.88C133.843 9.456 133.563 10.256 133.563 11.28C133.563 12.304 133.843 13.12 134.403 13.728C134.979 14.32 135.675 14.616 136.491 14.616C137.307 14.616 137.995 14.32 138.555 13.728C139.131 13.136 139.419 12.328 139.419 11.304Z" fill="white"/>
</svg>
